<svg width="22" height="24" viewBox="0 0 22 24" fill="none" xmlns="http://www.w3.org/2000/svg">
<path fill-rule="evenodd" clip-rule="evenodd" d="M2.48276 1.65517H12.4138C12.8709 1.65517 13.2414 2.0257 13.2414 2.48276V3.31034H14.8966V2.48276C14.8966 1.11157 13.785 0 12.4138 0H2.48276C1.11157 0 0 1.11157 0 2.48276V15.7241C0 17.0953 1.11157 18.2069 2.48276 18.2069H3.31034V16.5517H2.48276C2.0257 16.5517 1.65517 16.1812 1.65517 15.7241V2.48276C1.65517 2.0257 2.0257 1.65517 2.48276 1.65517Z" fill="#F5FAFE"/>
<path fill-rule="evenodd" clip-rule="evenodd" d="M16.5517 7.36947H6.6207C6.16363 7.36947 5.79311 7.73999 5.79311 8.19705V21.4384C5.79311 21.8955 6.16364 22.266 6.6207 22.266H16.5517C17.0088 22.266 17.3793 21.8955 17.3793 21.4384V8.19705C17.3793 7.73999 17.0088 7.36947 16.5517 7.36947ZM6.6207 5.71429C5.24951 5.71429 4.13794 6.82586 4.13794 8.19705V21.4384C4.13794 22.8096 5.24951 23.9212 6.6207 23.9212H16.5517C17.9229 23.9212 19.0345 22.8096 19.0345 21.4384V8.19705C19.0345 6.82586 17.9229 5.71429 16.5517 5.71429H6.6207Z" fill="#F5FAFE"/>
<path d="M7.44828 9.85223C7.44828 9.39516 7.81881 9.02464 8.27587 9.02464H11.5862C12.0433 9.02464 12.4138 9.39516 12.4138 9.85223C12.4138 10.3093 12.0433 10.6798 11.5862 10.6798H8.27587C7.81881 10.6798 7.44828 10.3093 7.44828 9.85223Z" fill="#F5FAFE"/>
<g clip-path="url(#clip0_15472_22075)">
<path fill-rule="evenodd" clip-rule="evenodd" d="M8.13794 16.867C8.13794 14.9625 9.68179 13.4187 11.5862 13.4187C13.4906 13.4187 15.0345 14.9625 15.0345 16.867C15.0345 18.7714 13.4906 20.3153 11.5862 20.3153C9.68179 20.3153 8.13794 18.7714 8.13794 16.867ZM11.5862 14.1084C10.0627 14.1084 8.82759 15.3434 8.82759 16.867C8.82759 18.3905 10.0627 19.6256 11.5862 19.6256C13.1098 19.6256 14.3448 18.3905 14.3448 16.867C14.3448 15.3434 13.1098 14.1084 11.5862 14.1084Z" fill="#F5FAFE"/>
<path fill-rule="evenodd" clip-rule="evenodd" d="M11.931 15.1428C11.931 14.9524 11.7767 14.798 11.5862 14.798C11.3958 14.798 11.2414 14.9524 11.2414 15.1428V16.5221H9.86208C9.67163 16.5221 9.51725 16.6765 9.51725 16.867C9.51725 17.0574 9.67163 17.2118 9.86208 17.2118H11.2414V18.5911C11.2414 18.7816 11.3958 18.9359 11.5862 18.9359C11.7767 18.9359 11.931 18.7816 11.931 18.5911V17.2118H13.3104C13.5008 17.2118 13.6552 17.0574 13.6552 16.867C13.6552 16.6765 13.5008 16.5221 13.3104 16.5221H11.931V15.1428Z" fill="#F5FAFE"/>
</g>
<defs>
<clipPath id="clip0_15472_22075">
<rect width="8.27586" height="8.27586" fill="white" transform="translate(7.44824 12.7291)"/>
</clipPath>
</defs>
</svg>
