<svg width="36" height="38" viewBox="0 0 36 38" fill="none" xmlns="http://www.w3.org/2000/svg">
<path d="M27.0447 0C27.5377 0.17189 27.997 0.387245 28.3201 0.829812C28.6856 1.32869 28.7775 1.89276 28.7261 2.48153C28.6895 2.89545 28.8229 3.09401 29.225 3.2659C29.8197 3.52077 30.3768 3.87838 30.9182 4.23895C31.1444 4.3901 31.2906 4.40294 31.502 4.25772C31.7045 4.11843 31.9238 3.99989 32.1451 3.8932C33.0757 3.44372 34.1643 3.71933 34.7314 4.57977C35.1107 5.1557 35.4604 5.75435 35.7805 6.36485C36.2487 7.2569 35.9435 8.35146 35.0979 8.90961C34.7896 9.11311 34.3372 9.22672 34.19 9.50727C34.0458 9.78289 34.2295 10.2185 34.2256 10.5831C34.2206 11.075 34.1633 11.567 34.1525 12.0599C34.1495 12.1656 34.2167 12.3128 34.2997 12.3731C34.5279 12.539 34.7887 12.6596 35.0267 12.8147C35.9741 13.4331 36.2655 14.582 35.7192 15.5718C35.4327 16.0895 35.1275 16.5972 34.8213 17.104C34.2236 18.0929 33.0441 18.4702 32.072 17.8548C31.421 17.4428 30.9616 17.427 30.3699 17.9259C29.9748 18.2588 29.4492 18.4416 28.9701 18.6648C28.7982 18.7449 28.729 18.8278 28.73 19.0175C28.733 19.3741 28.7389 19.7367 28.6866 20.0874C28.5473 21.0367 27.7748 21.749 26.8215 21.7895C26.1191 21.8201 25.4137 21.8221 24.7114 21.7885C23.6652 21.7391 22.7801 20.8708 22.8453 19.8246C22.8947 19.0274 22.6694 18.6006 21.9029 18.3517C21.4465 18.2035 21.0523 17.8627 20.6809 17.6394C20.1751 18.3151 19.7167 19.056 19.1299 19.6754C18.5431 20.2958 17.8299 20.7967 17.1749 21.3469C17.2312 21.3677 17.3409 21.4101 17.4525 21.4477C22.2358 23.0362 25.475 27.4085 25.5748 32.4427C25.6044 33.9482 25.5748 35.4547 25.5906 36.9612C25.5945 37.4067 25.3861 37.6991 25.0443 37.9342C16.918 37.9342 8.79181 37.9342 0.665579 37.9342C0.158801 37.7367 -0.0111133 37.3613 -0.000246691 36.8278C0.025438 35.6434 -0.0111133 34.4579 0.0155593 33.2735C0.0343288 32.4358 0.025438 31.5832 0.181522 30.7663C1.04789 26.2319 3.65587 23.131 7.97682 21.4822C8.15562 21.4141 8.3364 21.3518 8.57942 21.2639C6.62245 20.0884 5.2819 18.4811 4.6062 16.3621C3.92951 14.2421 4.0362 12.1498 4.97665 10.1237C5.77683 8.40086 7.02747 7.07908 8.70488 6.19099C11.0955 4.92552 13.5741 4.83662 16.106 5.75336C16.3243 5.38192 16.5288 5.03123 16.7373 4.68251C17.1571 3.98112 17.7834 3.67093 18.5935 3.6897C19.1546 3.70254 19.607 3.98013 20.0526 4.2676C20.2748 4.41084 20.424 4.38516 20.6364 4.23895C21.0819 3.93173 21.5255 3.57412 22.0263 3.40816C22.7198 3.17798 22.872 2.78185 22.8344 2.10812C22.7801 1.13803 23.3491 0.407991 24.2609 0.0889084C24.3271 0.0661874 24.3883 0.0296361 24.4516 0C25.3159 0 26.1803 0 27.0447 0ZM1.5764 36.2904C9.07336 36.2904 16.511 36.2904 24.0347 36.2904C23.9803 34.5992 24.0446 32.9248 23.8499 31.28C23.3619 27.1576 20.2847 23.7662 16.271 22.723C14.7418 22.3259 13.1869 22.3624 11.6339 22.399C7.47202 22.4968 3.82973 25.085 2.27976 28.9515C1.32745 31.3313 1.64061 33.8089 1.5764 36.2904ZM12.7571 20.8223C16.763 20.8184 19.8619 17.7283 19.857 13.7413C19.852 9.8797 16.6671 6.72345 12.7769 6.72543C8.87183 6.7274 5.7057 9.86686 5.70373 13.7393C5.70274 17.6404 8.87479 20.8263 12.7571 20.8223ZM17.4989 6.52094C17.5523 6.56835 17.5858 6.60293 17.6244 6.63158C20.751 8.90862 21.9542 11.9513 21.2676 15.7536C21.2459 15.8751 21.3151 16.0667 21.4089 16.1477C22.1004 16.7434 22.9036 17.1406 23.7749 17.4063C24.2431 17.5485 24.419 17.7807 24.4308 18.2677C24.4417 18.7123 24.4308 19.1568 24.4377 19.6013C24.4446 20.0261 24.5988 20.1921 25.0146 20.2C25.5451 20.2109 26.0766 20.2099 26.6071 20.2C27.0368 20.1921 27.1949 20.0182 27.1988 19.5747C27.2028 19.143 27.1959 18.7103 27.2008 18.2786C27.2077 17.7916 27.3766 17.5545 27.8439 17.4083C28.8486 17.0941 29.7426 16.5923 30.526 15.8879C30.8984 15.553 31.1928 15.5293 31.6393 15.7753C32.0285 15.9897 32.4099 16.2159 32.8001 16.4293C33.1399 16.616 33.3503 16.5676 33.5499 16.2446C33.8284 15.7931 34.0971 15.3357 34.3589 14.8754C34.5693 14.5049 34.5002 14.2698 34.1208 14.0475C33.7484 13.8292 33.3701 13.6227 32.9957 13.4074C32.5729 13.1634 32.4405 12.8957 32.5491 12.4225C32.7862 11.3941 32.7912 10.3707 32.5472 9.3423C32.4385 8.8859 32.5659 8.61621 32.969 8.38011C33.3513 8.15488 33.7415 7.94347 34.1258 7.72021C34.5051 7.50091 34.5644 7.30432 34.354 6.93485C34.0971 6.48537 33.8344 6.03787 33.5647 5.59629C33.3483 5.24066 33.1251 5.18435 32.7576 5.38488C32.0838 5.75425 31.2094 6.58275 30.4845 5.93414C29.7001 5.23078 28.8031 4.73388 27.8034 4.41084C27.3263 4.25674 27.1682 4.03842 27.1583 3.54251C27.1504 3.09796 27.1652 2.65342 27.1554 2.20987C27.1465 1.79101 26.9805 1.62801 26.5656 1.62208C26.0351 1.61517 25.5036 1.61517 24.9732 1.62208C24.5464 1.62801 24.3834 1.80089 24.3785 2.24148C24.3745 2.64848 24.3785 3.05647 24.3775 3.46348C24.3745 4.01273 24.2066 4.26563 23.6948 4.42467C22.701 4.73487 21.8228 5.2367 21.0503 5.93513C20.6878 6.2631 20.3973 6.2878 19.9676 6.05367C19.5567 5.82943 19.1526 5.59036 18.7426 5.36414C18.4492 5.20213 18.1855 5.24066 18.0116 5.54196C17.8299 5.85709 17.6708 6.19 17.4989 6.52094Z" fill="#00B4E5"/>
<path d="M25 7C25 6.44772 25.4477 6 26 6C26.5523 6 27 6.44772 27 7V12C27 12.5523 26.5523 13 26 13C25.4477 13 25 12.5523 25 12V7Z" fill="#00B4E5"/>
<path d="M27 15C27 15.5523 26.5523 16 26 16C25.4477 16 25 15.5523 25 15C25 14.4477 25.4477 14 26 14C26.5523 14 27 14.4477 27 15Z" fill="#00B4E5"/>
</svg>
