<svg width="21" height="17" viewBox="0 0 21 17" fill="none" xmlns="http://www.w3.org/2000/svg">
<path d="M12.2498 8.5C12.2498 9.4665 11.4663 10.25 10.4998 10.25C9.53327 10.25 8.74977 9.4665 8.74977 8.5C8.74977 7.5335 9.53327 6.75 10.4998 6.75C11.4663 6.75 12.2498 7.5335 12.2498 8.5Z" fill="#00B4E5"/>
<path fill-rule="evenodd" clip-rule="evenodd" d="M10.4998 0.625C5.60719 0.625 1.49618 3.97128 0.330566 8.5C1.49618 13.0287 5.60719 16.375 10.4998 16.375C15.3923 16.375 19.5034 13.0287 20.669 8.5C19.5034 3.97128 15.3923 0.625 10.4998 0.625ZM13.9998 8.5C13.9998 10.433 12.4328 12 10.4998 12C8.56677 12 6.99977 10.433 6.99977 8.5C6.99977 6.567 8.56677 5 10.4998 5C12.4328 5 13.9998 6.567 13.9998 8.5Z" fill="#00B4E5"/>
</svg>
