<svg width="24" height="24" viewBox="0 0 24 24" fill="none" xmlns="http://www.w3.org/2000/svg">
<path fill-rule="evenodd" clip-rule="evenodd" d="M6.59993 5.14288C5.32179 5.14288 4.28564 6.29415 4.28564 7.71431V21.4286C4.28564 22.8488 5.32179 24 6.59993 24H12.7714V22.2857H6.59993C6.17388 22.2857 5.8285 21.902 5.8285 21.4286V7.71431C5.8285 7.24093 6.17388 6.85717 6.59993 6.85717H17.3999C17.826 6.85717 18.1714 7.24092 18.1714 7.71431V14.5715H19.7142V7.71431C19.7142 6.29415 18.6781 5.14288 17.3999 5.14288H6.59993ZM12.7714 15.4286H8.14279C7.71674 15.4286 7.37136 15.8124 7.37136 16.2857C7.37136 16.7591 7.71674 17.1429 8.14279 17.1429H12.7714V15.4286ZM7.37136 9.4286C7.37136 8.95521 7.71674 8.57145 8.14279 8.57145H15.8571C16.2831 8.57145 16.6285 8.95521 16.6285 9.4286C16.6285 9.90198 16.2831 10.2857 15.8571 10.2857H8.14279C7.71674 10.2857 7.37136 9.90198 7.37136 9.4286ZM7.37136 12.8572C7.37136 12.3838 7.71674 12 8.14279 12H15.8571C16.2831 12 16.6285 12.3838 16.6285 12.8572C16.6285 13.3306 16.2831 13.7143 15.8571 13.7143H8.14279C7.71674 13.7143 7.37136 13.3306 7.37136 12.8572ZM7.37136 19.7143C7.37136 19.2409 7.71674 18.8572 8.14279 18.8572H11.2285C11.6546 18.8572 11.9999 19.2409 11.9999 19.7143C11.9999 20.1877 11.6546 20.5715 11.2285 20.5715H8.14279C7.71674 20.5715 7.37136 20.1877 7.37136 19.7143Z" fill="#F2F2F2"/>
<path fill-rule="evenodd" clip-rule="evenodd" d="M15.8572 21.8571V23.1428H16.7144V21.8571H17.1429C18.0897 21.8571 18.8572 21.0896 18.8572 20.1428C18.8572 19.1961 18.0897 18.4286 17.1429 18.4286H16.7144V16.7143H17.5715V17.5714H18.4286V15.8571H16.7144V14.5714H15.8572V15.8571H15.4286C14.4819 15.8571 13.7144 16.6246 13.7144 17.5714C13.7144 18.5182 14.4819 19.2857 15.4286 19.2857H15.8572V21H15.0001V20.1428H14.1429V21.8571H15.8572ZM16.7144 21H17.1429C17.6163 21 18.0001 20.6162 18.0001 20.1428C18.0001 19.6695 17.6163 19.2857 17.1429 19.2857H16.7144V21ZM15.8572 18.4286V16.7143H15.4286C14.9553 16.7143 14.5715 17.098 14.5715 17.5714C14.5715 18.0448 14.9553 18.4286 15.4286 18.4286H15.8572Z" fill="#F2F2F2"/>
<path fill-rule="evenodd" clip-rule="evenodd" d="M2.57143 1.71429H12.8571C13.3305 1.71429 13.7143 2.09804 13.7143 2.57143V3.42857H15.4286V2.57143C15.4286 1.15127 14.2773 0 12.8571 0H2.57143C1.15127 0 0 1.15127 0 2.57143V16.2857C0 17.7059 1.15127 18.8571 2.57143 18.8571H3.42857V17.1429H2.57143C2.09804 17.1429 1.71429 16.7591 1.71429 16.2857V2.57143C1.71429 2.09804 2.09804 1.71429 2.57143 1.71429Z" fill="#F2F2F2"/>
</svg>
