<svg width="16" height="16" viewBox="0 0 16 16" fill="none" xmlns="http://www.w3.org/2000/svg">
<path d="M8 3.5C8.41421 3.5 8.75 3.83579 8.75 4.25V8.75C8.75 9.16421 8.41421 9.5 8 9.5C7.58579 9.5 7.25 9.16421 7.25 8.75V4.25C7.25 3.83579 7.58579 3.5 8 3.5Z" fill="#F2994A"/>
<path d="M8 11C7.58579 11 7.25 11.3358 7.25 11.75C7.25 12.1642 7.58579 12.5 8 12.5C8.41421 12.5 8.75 12.1642 8.75 11.75C8.75 11.3358 8.41421 11 8 11Z" fill="#F2994A"/>
<path fill-rule="evenodd" clip-rule="evenodd" d="M8 0.5C3.85786 0.5 0.5 3.85786 0.5 8C0.5 12.1421 3.85786 15.5 8 15.5C12.1421 15.5 15.5 12.1421 15.5 8C15.5 3.85786 12.1421 0.5 8 0.5ZM2 8C2 11.3137 4.68629 14 8 14C11.3137 14 14 11.3137 14 8C14 4.68629 11.3137 2 8 2C4.68629 2 2 4.68629 2 8Z" fill="#F2994A"/>
</svg>
