<svg width="12" height="14" viewBox="0 0 12 14" fill="none" xmlns="http://www.w3.org/2000/svg">
<path d="M6.74998 1.00663C6.75014 0.592413 6.41449 0.256495 6.00027 0.256332C5.58606 0.25617 5.25014 0.591825 5.24998 1.00604L5.24763 7.00863C5.24747 7.42284 5.58313 7.75876 5.99734 7.75892C6.41155 7.75908 6.74747 7.42343 6.74763 7.00921L6.74998 1.00663Z" fill="#C5C5C5"/>
<path d="M0 7.74368C0 6.08685 0.671554 4.58687 1.75731 3.50109L2.81797 4.56175C2.00366 5.37608 1.5 6.50106 1.5 7.74368C1.5 10.229 3.51472 12.2437 6 12.2437C8.48528 12.2437 10.5 10.229 10.5 7.74368C10.5 6.50104 9.99632 5.37603 9.18197 4.56169L10.2426 3.50103C11.3284 4.58682 12 6.08682 12 7.74368C12 11.0574 9.31371 13.7437 6 13.7437C2.68629 13.7437 0 11.0574 0 7.74368Z" fill="#C5C5C5"/>
</svg>
