<svg width="20" height="24" viewBox="0 0 20 24" fill="none" xmlns="http://www.w3.org/2000/svg">
<path fill-rule="evenodd" clip-rule="evenodd" d="M2.57143 1.71429H12.8571C13.3305 1.71429 13.7143 2.09804 13.7143 2.57143V3.42857H15.4286V2.57143C15.4286 1.15127 14.2773 0 12.8571 0H2.57143C1.15127 0 0 1.15127 0 2.57143V16.2857C0 17.7059 1.15127 18.8571 2.57143 18.8571H3.42857V17.1429H2.57143C2.09804 17.1429 1.71429 16.7591 1.71429 16.2857V2.57143C1.71429 2.09804 2.09804 1.71429 2.57143 1.71429Z" fill="#F5FAFE"/>
<path fill-rule="evenodd" clip-rule="evenodd" d="M17.1428 6.85717H6.85707C6.38369 6.85717 5.99993 7.24093 5.99993 7.71431V21.4286C5.99993 21.902 6.38369 22.2857 6.85707 22.2857H17.1428C17.6162 22.2857 17.9999 21.902 17.9999 21.4286V7.71431C17.9999 7.24093 17.6162 6.85717 17.1428 6.85717ZM6.85707 5.14288C5.43691 5.14288 4.28564 6.29415 4.28564 7.71431V21.4286C4.28564 22.8488 5.43691 24 6.85707 24H17.1428C18.5629 24 19.7142 22.8488 19.7142 21.4286V7.71431C19.7142 6.29415 18.5629 5.14288 17.1428 5.14288H6.85707Z" fill="#F5FAFE"/>
<path d="M7.35718 17.1429C7.35718 16.9456 7.51708 16.7857 7.71432 16.7857H9.42861C9.62585 16.7857 9.78575 16.9456 9.78575 17.1429V18.8572C9.78575 19.0544 9.62585 19.2143 9.42861 19.2143H7.71432C7.51708 19.2143 7.35718 19.0544 7.35718 18.8572V17.1429ZM10.7857 13.7143C10.7857 13.5171 10.9456 13.3572 11.1429 13.3572H12.8572C13.0544 13.3572 13.2143 13.5171 13.2143 13.7143V15.4286C13.2143 15.6258 13.0544 15.7857 12.8572 15.7857H11.1429C10.9456 15.7857 10.7857 15.6258 10.7857 15.4286V13.7143ZM14.2143 10.2857C14.2143 10.0885 14.3742 9.92859 14.5715 9.92859H16.2857C16.483 9.92859 16.6429 10.0885 16.6429 10.2857V12C16.6429 12.1973 16.483 12.3572 16.2857 12.3572H14.5715C14.3742 12.3572 14.2143 12.1973 14.2143 12V10.2857Z" stroke="white" stroke-linejoin="round"/>
</svg>
