<svg width="315" height="236" viewBox="0 0 315 236" fill="none" xmlns="http://www.w3.org/2000/svg">
<g clip-path="url(#clip0_16109_23541)">
<path d="M259.257 99.1051C259.219 98.8153 259.123 98.5362 258.975 98.2841C258.827 98.0321 258.63 97.8122 258.397 97.6373C258.163 97.4624 257.897 97.3361 257.614 97.2658C257.331 97.1955 257.037 97.1826 256.749 97.2278C256.461 97.2731 256.184 97.3756 255.936 97.5293C255.688 97.683 255.473 97.8848 255.304 98.1229C255.135 98.3611 255.015 98.6307 254.951 98.916C254.887 99.2013 254.881 99.4965 254.932 99.7843C255.244 101.829 255.649 108.234 253.441 110.81C252.986 111.357 252.35 111.72 251.65 111.835L251.85 99.637C251.863 99.2115 251.79 98.7878 251.636 98.3912C251.481 97.9946 251.249 97.6332 250.953 97.3284C250.657 97.0236 250.302 96.7817 249.911 96.617C249.52 96.4524 249.099 96.3685 248.675 96.3701C248.25 96.3718 247.831 96.4591 247.44 96.6269C247.05 96.7946 246.698 97.0393 246.404 97.3465C246.11 97.6536 245.881 98.0169 245.73 98.4147C245.579 98.8126 245.509 99.2368 245.525 99.6621L246.099 122.81C245.374 122.708 244.714 122.339 244.246 121.775C242.042 119.199 242.454 112.791 242.755 110.749C242.844 110.175 242.702 109.588 242.36 109.118C242.018 108.648 241.504 108.334 240.931 108.244C240.358 108.155 239.773 108.297 239.304 108.64C238.836 108.983 238.523 109.499 238.433 110.074C238.276 111.08 237 120.047 240.917 124.629C241.577 125.402 242.388 126.032 243.3 126.478C244.212 126.925 245.206 127.178 246.22 127.224L246.471 137.287H251.245L251.603 116.234C252.596 116.172 253.567 115.911 254.456 115.464C255.346 115.018 256.137 114.396 256.781 113.635C260.68 109.082 259.415 100.111 259.257 99.1051Z" fill="#4CC76E"/>
<path d="M55.334 118.728C55.2765 118.361 55.0762 118.033 54.7771 117.814C54.4781 117.596 54.1048 117.506 53.7393 117.563C53.3739 117.621 53.0463 117.822 52.8285 118.122C52.6108 118.422 52.5207 118.796 52.5782 119.162C52.7753 120.463 53.0298 124.553 51.625 126.189C51.3391 126.537 50.9366 126.769 50.4926 126.843L50.6216 119.065C50.6318 118.793 50.5869 118.521 50.4896 118.266C50.3923 118.011 50.2446 117.779 50.0555 117.583C49.8663 117.387 49.6395 117.231 49.3888 117.125C49.1381 117.019 48.8686 116.965 48.5965 116.966C48.3244 116.968 48.0554 117.024 47.8057 117.132C47.5559 117.24 47.3305 117.398 47.1431 117.596C46.9556 117.794 46.81 118.027 46.715 118.283C46.62 118.539 46.5775 118.811 46.5901 119.083L46.9484 133.84C46.487 133.774 46.066 133.54 45.7659 133.182C44.3611 131.54 44.6155 127.457 44.8162 126.153C44.8445 125.971 44.8368 125.786 44.7936 125.607C44.7505 125.429 44.6727 125.261 44.5647 125.112C44.4567 124.964 44.3206 124.838 44.1643 124.743C44.0079 124.647 43.8343 124.583 43.6533 124.555C43.4724 124.527 43.2877 124.535 43.1097 124.578C42.9317 124.621 42.764 124.699 42.6161 124.807C42.4681 124.916 42.3429 125.052 42.2476 125.209C42.1523 125.366 42.0887 125.54 42.0604 125.721C41.9601 126.361 41.1538 132.079 43.6444 134.997C44.063 135.491 44.5783 135.894 45.1583 136.18C45.7384 136.466 46.3708 136.63 47.0165 136.661L47.1742 143.083H50.2202L50.4388 129.664C51.0724 129.625 51.6916 129.458 52.2594 129.173C52.8271 128.889 53.3317 128.492 53.7429 128.007C56.2407 125.089 55.4344 119.371 55.334 118.728Z" fill="#4CC76E"/>
<path d="M157.498 235.996C244.482 235.996 314.996 210.961 314.996 180.079C314.996 149.197 244.482 124.162 157.498 124.162C70.5143 124.162 0 149.197 0 180.079C0 210.961 70.5143 235.996 157.498 235.996Z" fill="url(#paint0_linear_16109_23541)"/>
<path d="M170.155 141.07C170.155 141.07 170.066 146.461 170.155 146.989C170.245 147.517 168.052 150.683 167.16 150.543C166.267 150.403 164.472 150.105 164.214 149.806C163.956 149.508 164.067 148.8 164.16 148.153C164.253 147.506 164.923 141.648 164.923 141.35C164.923 141.052 169.163 140.25 170.155 141.07Z" fill="#FFD3BC"/>
<path d="M166.683 146.68C165.561 147.287 164.934 149.135 164.773 149.16C164.612 149.185 164.318 149.135 164.318 148.955C164.318 148.775 164.364 148.154 164.16 148.154C163.956 148.154 163.726 149.16 163.68 150.619C163.633 152.078 163.117 155.564 163.68 156.01C164.038 156.29 167.263 157.997 167.367 158.224C167.471 158.45 167.299 160.053 167.575 160.304C167.851 160.556 168.485 161.171 168.984 161.192C169.482 161.214 172.377 161.512 173.743 161.192C175.108 160.872 176.839 160.211 176.885 160.028C176.932 159.844 176.527 155.967 176.111 155.485C175.696 155.003 172.56 150.716 172.309 150.328C172.03 149.743 171.882 149.104 171.875 148.455C171.875 147.906 171.381 146.712 170.464 146.425C169.546 146.137 167.525 146.224 166.683 146.68Z" fill="url(#paint1_linear_16109_23541)"/>
<path d="M137.452 144.182C137.452 144.182 137.452 147.316 137.362 147.855C137.273 148.394 139.462 151.546 140.358 151.409C141.254 151.273 143.046 150.967 143.304 150.669C143.562 150.371 143.447 149.663 143.357 149.019C143.268 148.376 142.687 144.76 142.687 144.462C142.687 144.164 138.448 143.38 137.452 144.182Z" fill="#FFD3BC"/>
<path d="M140.336 75.0475C139.068 79.6692 136.67 95.5075 136.67 103.206C136.67 110.904 135.904 130.519 135.904 133.509C135.904 136.499 135.581 143.892 136.352 144.291C137.122 144.69 138.914 145.833 141.347 145.448C143.78 145.064 144.422 143.522 144.486 142.106C144.551 140.69 145.124 130.544 145.701 126.627C146.278 122.71 148.328 115.152 149.672 110.293C151.016 105.434 154.155 95.6585 154.99 95.6944C155.825 95.7303 161.007 117.146 161.44 118.357C161.874 119.569 162.694 136.816 162.748 138.26C162.802 139.705 162.748 141.103 163.658 141.693C164.569 142.282 167.342 143.727 168.786 143.849C170.231 143.971 171.191 141.653 171.456 140.956C171.721 140.259 172.198 117.197 172.03 110.871C171.861 104.546 172.356 92.7474 172.065 88.8983C171.775 85.0493 170.836 76.8085 170.238 75.0762C169.639 73.344 140.336 75.0475 140.336 75.0475Z" fill="#11284B"/>
<path d="M131.381 21.3078C132.592 19.9601 138.24 13.5774 139.358 13.3509C140.476 13.1245 143.207 12.6322 143.816 12.0032C144.425 11.3743 146.995 3.27727 145.966 1.80378C144.938 0.330281 141.021 0.747172 139.828 3.24133C138.634 5.73549 138.699 7.06164 136.735 8.79389C134.771 10.5261 126.221 17.5558 125.425 18.2674C124.63 18.979 126.206 22.4183 127.457 23.0149C128.708 23.6115 131.381 21.3078 131.381 21.3078Z" fill="url(#paint2_linear_16109_23541)"/>
<path d="M146.988 23.2524C144.103 23.8598 139.308 24.3737 137.728 24.8841C136.147 25.3944 129.908 27.5939 129.955 26.6595C130.001 25.725 132.84 21.628 132.327 21.2003C131.815 20.7727 128.744 20.2659 128.235 19.6118C127.726 18.9577 127.023 17.4196 126.325 17.6064C125.626 17.7933 117.534 25.3513 118.082 28.2444C119.387 35.0728 138.509 40.0395 138.95 43.0188C139.39 45.9982 137.466 74.5265 138.512 75.5795C139.559 76.6325 150.654 80.6541 156.244 81.0063C161.834 81.3585 171.628 79.4034 172.162 77.9299C172.696 76.4564 169.435 48.1006 169.815 48.1006C170.195 48.1006 170.299 57.0278 174.552 59.3351C177.362 60.8589 181.225 59.2884 181.967 58.4474C182.709 57.6064 179.326 45.743 177.796 41.743C176.265 37.743 174.803 29.4735 171.345 26.5373C167.887 23.6011 163.01 24.1042 161.329 23.4142C159.648 22.7241 154.011 23.2165 152.589 23.0548C151.166 22.8931 146.988 23.2524 146.988 23.2524Z" fill="url(#paint3_linear_16109_23541)"/>
<path d="M183.024 53.0852C183.024 53.0852 178.05 54.591 177.649 55.1121C177.247 55.6332 176.574 57.7069 177.649 58.5694C178.724 59.432 179.906 60.0825 181.186 59.0834C182.465 58.0843 183.633 56.7437 184.371 56.5676C185.11 56.3915 187.321 56.715 188.249 56.352C189.177 55.989 190.937 48.9306 190.227 48.503C189.517 48.0753 183.024 53.0852 183.024 53.0852Z" fill="url(#paint4_linear_16109_23541)"/>
<path d="M147.009 22.2999C145.404 21.9656 142.304 18.9252 142.021 15.8309C141.745 12.8192 139.537 4.36278 147.217 1.19296C154.423 -1.78278 161.841 1.27922 162.906 4.94858C163.902 8.37356 155.441 8.54247 152.341 10.7599C149.242 12.9773 149.03 14.476 148.256 14.1238C147.482 13.7716 147.009 22.2999 147.009 22.2999Z" fill="#E64D4E"/>
<path d="M146.88 16.2728C146.78 17.6528 146.432 24.3195 147.009 25.3006C147.536 26.2027 148.475 28.8191 152.159 28.7041C155.843 28.5891 158.229 24.8945 158.434 24.4633C158.638 24.032 158.201 18.6915 158.201 17.7966C158.201 16.9017 153.252 14.7957 151.266 14.8532C149.281 14.9107 146.977 14.979 146.88 16.2728Z" fill="url(#paint5_linear_16109_23541)"/>
<path d="M147.217 16.2944C147.633 16.2944 147.142 18.8101 147.894 19.6511C148.647 20.492 151.944 24.7975 155.391 24.3878C158.387 24.0284 157.957 21.4336 158.391 19.2989C158.781 17.3653 160.028 17.1964 160.465 12.1434C160.634 10.1847 161.54 7.11197 159.863 6.55492C158.186 5.99786 151.811 4.48124 150.231 6.55492C148.65 8.62859 148.5 13.6133 147.668 12.9736C146.837 12.3339 145.11 9.20002 144.085 10.8963C143.06 12.5927 144.999 16.359 147.217 16.2944Z" fill="#F2DAD4"/>
<path d="M173.976 42.1491L163.888 54.9361C163.769 55.0851 163.695 55.2649 163.675 55.4544C163.655 55.6439 163.689 55.8353 163.773 56.0062C163.857 56.177 163.988 56.3203 164.151 56.4191C164.313 56.5179 164.5 56.5682 164.69 56.5642L183.325 56.2479C183.478 56.2452 183.628 56.2075 183.764 56.1377C183.9 56.068 184.018 55.968 184.11 55.8454L193.639 43.0763C193.739 42.9415 193.8 42.7814 193.816 42.6138C193.831 42.4462 193.8 42.2776 193.726 42.1266C193.652 41.9756 193.537 41.8481 193.396 41.7582C193.254 41.6683 193.09 41.6195 192.922 41.6172L174.76 41.7681C174.609 41.7667 174.46 41.8004 174.323 41.8665C174.187 41.9325 174.068 42.0293 173.976 42.1491Z" fill="url(#paint6_linear_16109_23541)"/>
<path d="M189.93 47.2988C188.948 47.3994 187.525 47.9529 187.525 48.4668C187.525 48.9807 188.668 49.1209 188.984 49.1856C189.299 49.2502 189.7 49.3329 189.596 49.491C189.492 49.6492 189.238 50.4398 188.611 50.2997C187.984 50.1595 185.214 50.1236 184.669 50.1236C184.124 50.1236 183.504 50.483 183.465 50.8962C183.425 51.3095 183.307 51.3706 182.992 51.3886C182.676 51.4066 182.103 51.7049 182.103 52.2224C182.103 52.7399 183.372 53.1999 183.372 53.3796C183.372 53.5593 185.859 55.0867 186.346 55.3671C186.833 55.6474 187.744 56.3733 188.256 56.3733C188.769 56.3733 189.629 55.8846 189.689 55.1766C189.75 54.4686 190.765 53.9547 190.765 53.606C190.765 53.2574 190.442 53.0023 190.481 52.783C190.521 52.5638 191.406 52.2547 191.406 51.7049C191.406 51.155 191.048 50.4039 191.008 50.1739C190.969 49.9439 190.75 49.4551 190.954 49.376C191.159 49.297 191.879 48.6573 191.75 48.0247C191.621 47.3922 190.378 47.252 189.93 47.2988Z" fill="#FFD3BC"/>
<path d="M140.835 147.546C141.956 148.153 142.587 150 142.745 150.022C142.902 150.043 143.2 150 143.2 149.817C143.2 149.634 143.153 149.019 143.361 149.019C143.569 149.019 143.791 150.022 143.838 151.485C143.884 152.947 144.4 156.43 143.838 156.875C143.479 157.152 140.254 158.863 140.15 159.089C140.046 159.316 140.218 160.915 139.946 161.167C139.673 161.418 139.036 162.033 138.534 162.058C138.032 162.083 135.144 162.378 133.775 162.058C132.406 161.738 130.682 161.077 130.636 160.893C130.589 160.71 130.994 156.829 131.41 156.351C131.825 155.873 134.961 151.578 135.212 151.19C135.489 150.604 135.636 149.966 135.642 149.318C135.642 148.771 136.137 147.574 137.057 147.287C137.978 146.999 139.989 147.089 140.835 147.546Z" fill="url(#paint7_linear_16109_23541)"/>
<path d="M20.3291 175.203V188H18.624L12.1816 178.13V188H10.4854V175.203H12.1816L18.6504 185.1V175.203H20.3291ZM22.6582 183.351V183.148C22.6582 182.463 22.7578 181.827 22.957 181.241C23.1562 180.649 23.4434 180.137 23.8184 179.703C24.1934 179.264 24.6475 178.924 25.1807 178.684C25.7139 178.438 26.3115 178.314 26.9736 178.314C27.6416 178.314 28.2422 178.438 28.7754 178.684C29.3145 178.924 29.7715 179.264 30.1465 179.703C30.5273 180.137 30.8174 180.649 31.0166 181.241C31.2158 181.827 31.3154 182.463 31.3154 183.148V183.351C31.3154 184.036 31.2158 184.672 31.0166 185.258C30.8174 185.844 30.5273 186.356 30.1465 186.796C29.7715 187.229 29.3174 187.569 28.7842 187.815C28.2568 188.056 27.6592 188.176 26.9912 188.176C26.3232 188.176 25.7227 188.056 25.1895 187.815C24.6562 187.569 24.1992 187.229 23.8184 186.796C23.4434 186.356 23.1562 185.844 22.957 185.258C22.7578 184.672 22.6582 184.036 22.6582 183.351ZM24.2842 183.148V183.351C24.2842 183.825 24.3398 184.273 24.4512 184.695C24.5625 185.111 24.7295 185.48 24.9521 185.803C25.1807 186.125 25.4648 186.38 25.8047 186.567C26.1445 186.749 26.54 186.84 26.9912 186.84C27.4365 186.84 27.8262 186.749 28.1602 186.567C28.5 186.38 28.7812 186.125 29.0039 185.803C29.2266 185.48 29.3936 185.111 29.5049 184.695C29.6221 184.273 29.6807 183.825 29.6807 183.351V183.148C29.6807 182.68 29.6221 182.237 29.5049 181.821C29.3936 181.399 29.2236 181.027 28.9951 180.705C28.7725 180.377 28.4912 180.119 28.1514 179.932C27.8174 179.744 27.4248 179.65 26.9736 179.65C26.5283 179.65 26.1357 179.744 25.7959 179.932C25.4619 180.119 25.1807 180.377 24.9521 180.705C24.7295 181.027 24.5625 181.399 24.4512 181.821C24.3398 182.237 24.2842 182.68 24.2842 183.148ZM43.4268 186.374V181.479C43.4268 181.104 43.3506 180.778 43.1982 180.503C43.0518 180.222 42.8291 180.005 42.5303 179.853C42.2314 179.7 41.8623 179.624 41.4229 179.624C41.0127 179.624 40.6523 179.694 40.3418 179.835C40.0371 179.976 39.7969 180.16 39.6211 180.389C39.4512 180.617 39.3662 180.863 39.3662 181.127H37.7402C37.7402 180.787 37.8281 180.45 38.0039 180.116C38.1797 179.782 38.4316 179.48 38.7598 179.211C39.0938 178.936 39.4922 178.719 39.9551 178.561C40.4238 178.396 40.9453 178.314 41.5195 178.314C42.2109 178.314 42.8203 178.432 43.3477 178.666C43.8809 178.9 44.2969 179.255 44.5957 179.729C44.9004 180.198 45.0527 180.787 45.0527 181.496V185.926C45.0527 186.242 45.0791 186.579 45.1318 186.937C45.1904 187.294 45.2754 187.602 45.3867 187.859V188H43.6904C43.6084 187.812 43.5439 187.563 43.4971 187.253C43.4502 186.937 43.4268 186.644 43.4268 186.374ZM43.708 182.234L43.7256 183.377H42.082C41.6191 183.377 41.2061 183.415 40.8428 183.491C40.4795 183.562 40.1748 183.67 39.9287 183.816C39.6826 183.963 39.4951 184.147 39.3662 184.37C39.2373 184.587 39.1729 184.842 39.1729 185.135C39.1729 185.434 39.2402 185.706 39.375 185.952C39.5098 186.198 39.7119 186.395 39.9814 186.541C40.2568 186.682 40.5938 186.752 40.9922 186.752C41.4902 186.752 41.9297 186.646 42.3105 186.436C42.6914 186.225 42.9932 185.967 43.2158 185.662C43.4443 185.357 43.5674 185.062 43.585 184.774L44.2793 185.557C44.2383 185.803 44.127 186.075 43.9453 186.374C43.7637 186.673 43.5205 186.96 43.2158 187.235C42.917 187.505 42.5596 187.73 42.1436 187.912C41.7334 188.088 41.2705 188.176 40.7549 188.176C40.1104 188.176 39.5449 188.05 39.0586 187.798C38.5781 187.546 38.2031 187.209 37.9336 186.787C37.6699 186.359 37.5381 185.882 37.5381 185.354C37.5381 184.845 37.6377 184.396 37.8369 184.01C38.0361 183.617 38.3232 183.292 38.6982 183.034C39.0732 182.771 39.5244 182.571 40.0518 182.437C40.5791 182.302 41.168 182.234 41.8184 182.234H43.708ZM49.2363 180.318V191.656H47.6016V178.49H49.0957L49.2363 180.318ZM55.6436 183.166V183.351C55.6436 184.042 55.5615 184.684 55.3975 185.275C55.2334 185.861 54.9932 186.371 54.6768 186.805C54.3662 187.238 53.9824 187.575 53.5254 187.815C53.0684 188.056 52.5439 188.176 51.9521 188.176C51.3486 188.176 50.8154 188.076 50.3525 187.877C49.8896 187.678 49.4971 187.388 49.1748 187.007C48.8525 186.626 48.5947 186.169 48.4014 185.636C48.2139 185.103 48.085 184.502 48.0146 183.834V182.85C48.085 182.146 48.2168 181.517 48.4102 180.96C48.6035 180.403 48.8584 179.929 49.1748 179.536C49.4971 179.138 49.8867 178.836 50.3438 178.631C50.8008 178.42 51.3281 178.314 51.9258 178.314C52.5234 178.314 53.0537 178.432 53.5166 178.666C53.9795 178.895 54.3691 179.223 54.6855 179.65C55.002 180.078 55.2393 180.591 55.3975 181.188C55.5615 181.78 55.6436 182.439 55.6436 183.166ZM54.0088 183.351V183.166C54.0088 182.691 53.959 182.246 53.8594 181.83C53.7598 181.408 53.6045 181.039 53.3936 180.723C53.1885 180.4 52.9248 180.148 52.6025 179.967C52.2803 179.779 51.8965 179.686 51.4512 179.686C51.041 179.686 50.6836 179.756 50.3789 179.896C50.0801 180.037 49.8252 180.228 49.6143 180.468C49.4033 180.702 49.2305 180.972 49.0957 181.276C48.9668 181.575 48.8701 181.886 48.8057 182.208V184.484C48.9229 184.895 49.0869 185.281 49.2979 185.645C49.5088 186.002 49.79 186.292 50.1416 186.515C50.4932 186.731 50.9355 186.84 51.4688 186.84C51.9082 186.84 52.2861 186.749 52.6025 186.567C52.9248 186.38 53.1885 186.125 53.3936 185.803C53.6045 185.48 53.7598 185.111 53.8594 184.695C53.959 184.273 54.0088 183.825 54.0088 183.351ZM59.3438 180.318V191.656H57.709V178.49H59.2031L59.3438 180.318ZM65.751 183.166V183.351C65.751 184.042 65.6689 184.684 65.5049 185.275C65.3408 185.861 65.1006 186.371 64.7842 186.805C64.4736 187.238 64.0898 187.575 63.6328 187.815C63.1758 188.056 62.6514 188.176 62.0596 188.176C61.4561 188.176 60.9229 188.076 60.46 187.877C59.9971 187.678 59.6045 187.388 59.2822 187.007C58.96 186.626 58.7021 186.169 58.5088 185.636C58.3213 185.103 58.1924 184.502 58.1221 183.834V182.85C58.1924 182.146 58.3242 181.517 58.5176 180.96C58.7109 180.403 58.9658 179.929 59.2822 179.536C59.6045 179.138 59.9941 178.836 60.4512 178.631C60.9082 178.42 61.4355 178.314 62.0332 178.314C62.6309 178.314 63.1611 178.432 63.624 178.666C64.0869 178.895 64.4766 179.223 64.793 179.65C65.1094 180.078 65.3467 180.591 65.5049 181.188C65.6689 181.78 65.751 182.439 65.751 183.166ZM64.1162 183.351V183.166C64.1162 182.691 64.0664 182.246 63.9668 181.83C63.8672 181.408 63.7119 181.039 63.501 180.723C63.2959 180.4 63.0322 180.148 62.71 179.967C62.3877 179.779 62.0039 179.686 61.5586 179.686C61.1484 179.686 60.791 179.756 60.4863 179.896C60.1875 180.037 59.9326 180.228 59.7217 180.468C59.5107 180.702 59.3379 180.972 59.2031 181.276C59.0742 181.575 58.9775 181.886 58.9131 182.208V184.484C59.0303 184.895 59.1943 185.281 59.4053 185.645C59.6162 186.002 59.8975 186.292 60.249 186.515C60.6006 186.731 61.043 186.84 61.5762 186.84C62.0156 186.84 62.3936 186.749 62.71 186.567C63.0322 186.38 63.2959 186.125 63.501 185.803C63.7119 185.48 63.8672 185.111 63.9668 184.695C64.0664 184.273 64.1162 183.825 64.1162 183.351ZM67.3945 183.351V183.148C67.3945 182.463 67.4941 181.827 67.6934 181.241C67.8926 180.649 68.1797 180.137 68.5547 179.703C68.9297 179.264 69.3838 178.924 69.917 178.684C70.4502 178.438 71.0479 178.314 71.71 178.314C72.3779 178.314 72.9785 178.438 73.5117 178.684C74.0508 178.924 74.5078 179.264 74.8828 179.703C75.2637 180.137 75.5537 180.649 75.7529 181.241C75.9521 181.827 76.0518 182.463 76.0518 183.148V183.351C76.0518 184.036 75.9521 184.672 75.7529 185.258C75.5537 185.844 75.2637 186.356 74.8828 186.796C74.5078 187.229 74.0537 187.569 73.5205 187.815C72.9932 188.056 72.3955 188.176 71.7275 188.176C71.0596 188.176 70.459 188.056 69.9258 187.815C69.3926 187.569 68.9355 187.229 68.5547 186.796C68.1797 186.356 67.8926 185.844 67.6934 185.258C67.4941 184.672 67.3945 184.036 67.3945 183.351ZM69.0205 183.148V183.351C69.0205 183.825 69.0762 184.273 69.1875 184.695C69.2988 185.111 69.4658 185.48 69.6885 185.803C69.917 186.125 70.2012 186.38 70.541 186.567C70.8809 186.749 71.2764 186.84 71.7275 186.84C72.1729 186.84 72.5625 186.749 72.8965 186.567C73.2363 186.38 73.5176 186.125 73.7402 185.803C73.9629 185.48 74.1299 185.111 74.2412 184.695C74.3584 184.273 74.417 183.825 74.417 183.351V183.148C74.417 182.68 74.3584 182.237 74.2412 181.821C74.1299 181.399 73.96 181.027 73.7314 180.705C73.5088 180.377 73.2275 180.119 72.8877 179.932C72.5537 179.744 72.1611 179.65 71.71 179.65C71.2646 179.65 70.8721 179.744 70.5322 179.932C70.1982 180.119 69.917 180.377 69.6885 180.705C69.4658 181.027 69.2988 181.399 69.1875 181.821C69.0762 182.237 69.0205 182.68 69.0205 183.148ZM79.8574 178.49V188H78.2227V178.49H79.8574ZM78.0996 175.968C78.0996 175.704 78.1787 175.481 78.3369 175.3C78.501 175.118 78.7412 175.027 79.0576 175.027C79.3682 175.027 79.6055 175.118 79.7695 175.3C79.9395 175.481 80.0244 175.704 80.0244 175.968C80.0244 176.22 79.9395 176.437 79.7695 176.618C79.6055 176.794 79.3682 176.882 79.0576 176.882C78.7412 176.882 78.501 176.794 78.3369 176.618C78.1787 176.437 78.0996 176.22 78.0996 175.968ZM84.0938 180.521V188H82.4678V178.49H84.0059L84.0938 180.521ZM83.707 182.885L83.0303 182.858C83.0361 182.208 83.1328 181.607 83.3203 181.057C83.5078 180.5 83.7715 180.017 84.1113 179.606C84.4512 179.196 84.8555 178.88 85.3242 178.657C85.7988 178.429 86.3232 178.314 86.8975 178.314C87.3662 178.314 87.7881 178.379 88.1631 178.508C88.5381 178.631 88.8574 178.83 89.1211 179.105C89.3906 179.381 89.5957 179.738 89.7363 180.178C89.877 180.611 89.9473 181.142 89.9473 181.769V188H88.3125V181.751C88.3125 181.253 88.2393 180.854 88.0928 180.556C87.9463 180.251 87.7324 180.031 87.4512 179.896C87.1699 179.756 86.8242 179.686 86.4141 179.686C86.0098 179.686 85.6406 179.771 85.3066 179.94C84.9785 180.11 84.6943 180.345 84.4541 180.644C84.2197 180.942 84.0352 181.285 83.9004 181.672C83.7715 182.053 83.707 182.457 83.707 182.885ZM96.3984 178.49V179.738H91.2568V178.49H96.3984ZM92.9971 176.179H94.623V185.645C94.623 185.967 94.6729 186.21 94.7725 186.374C94.8721 186.538 95.001 186.646 95.1592 186.699C95.3174 186.752 95.4873 186.778 95.6689 186.778C95.8037 186.778 95.9443 186.767 96.0908 186.743C96.2432 186.714 96.3574 186.69 96.4336 186.673L96.4424 188C96.3135 188.041 96.1436 188.079 95.9326 188.114C95.7275 188.155 95.4785 188.176 95.1855 188.176C94.7871 188.176 94.4209 188.097 94.0869 187.938C93.7529 187.78 93.4863 187.517 93.2871 187.147C93.0938 186.772 92.9971 186.269 92.9971 185.636V176.179ZM99.9229 180.38V188H98.2881V178.49H99.835L99.9229 180.38ZM99.5889 182.885L98.833 182.858C98.8389 182.208 98.9238 181.607 99.0879 181.057C99.252 180.5 99.4951 180.017 99.8174 179.606C100.14 179.196 100.541 178.88 101.021 178.657C101.502 178.429 102.059 178.314 102.691 178.314C103.137 178.314 103.547 178.379 103.922 178.508C104.297 178.631 104.622 178.827 104.897 179.097C105.173 179.366 105.387 179.712 105.539 180.134C105.691 180.556 105.768 181.065 105.768 181.663V188H104.142V181.742C104.142 181.244 104.057 180.846 103.887 180.547C103.723 180.248 103.488 180.031 103.184 179.896C102.879 179.756 102.521 179.686 102.111 179.686C101.631 179.686 101.229 179.771 100.907 179.94C100.585 180.11 100.327 180.345 100.134 180.644C99.9404 180.942 99.7998 181.285 99.7119 181.672C99.6299 182.053 99.5889 182.457 99.5889 182.885ZM105.75 181.988L104.66 182.322C104.666 181.801 104.751 181.3 104.915 180.819C105.085 180.339 105.328 179.911 105.645 179.536C105.967 179.161 106.362 178.865 106.831 178.648C107.3 178.426 107.836 178.314 108.439 178.314C108.949 178.314 109.4 178.382 109.793 178.517C110.191 178.651 110.525 178.859 110.795 179.141C111.07 179.416 111.278 179.771 111.419 180.204C111.56 180.638 111.63 181.153 111.63 181.751V188H109.995V181.733C109.995 181.2 109.91 180.787 109.74 180.494C109.576 180.195 109.342 179.987 109.037 179.87C108.738 179.747 108.381 179.686 107.965 179.686C107.607 179.686 107.291 179.747 107.016 179.87C106.74 179.993 106.509 180.163 106.321 180.38C106.134 180.591 105.99 180.834 105.891 181.109C105.797 181.385 105.75 181.678 105.75 181.988ZM118.037 188.176C117.375 188.176 116.774 188.064 116.235 187.842C115.702 187.613 115.242 187.294 114.855 186.884C114.475 186.474 114.182 185.987 113.977 185.425C113.771 184.862 113.669 184.247 113.669 183.579V183.21C113.669 182.437 113.783 181.748 114.012 181.145C114.24 180.535 114.551 180.02 114.943 179.598C115.336 179.176 115.781 178.856 116.279 178.64C116.777 178.423 117.293 178.314 117.826 178.314C118.506 178.314 119.092 178.432 119.584 178.666C120.082 178.9 120.489 179.229 120.806 179.65C121.122 180.066 121.356 180.559 121.509 181.127C121.661 181.689 121.737 182.305 121.737 182.973V183.702H114.636V182.375H120.111V182.252C120.088 181.83 120 181.42 119.848 181.021C119.701 180.623 119.467 180.295 119.145 180.037C118.822 179.779 118.383 179.65 117.826 179.65C117.457 179.65 117.117 179.729 116.807 179.888C116.496 180.04 116.229 180.269 116.007 180.573C115.784 180.878 115.611 181.25 115.488 181.689C115.365 182.129 115.304 182.636 115.304 183.21V183.579C115.304 184.03 115.365 184.455 115.488 184.854C115.617 185.246 115.802 185.592 116.042 185.891C116.288 186.189 116.584 186.424 116.93 186.594C117.281 186.764 117.68 186.849 118.125 186.849C118.699 186.849 119.186 186.731 119.584 186.497C119.982 186.263 120.331 185.949 120.63 185.557L121.614 186.339C121.409 186.649 121.148 186.945 120.832 187.227C120.516 187.508 120.126 187.736 119.663 187.912C119.206 188.088 118.664 188.176 118.037 188.176ZM125.262 180.521V188H123.636V178.49H125.174L125.262 180.521ZM124.875 182.885L124.198 182.858C124.204 182.208 124.301 181.607 124.488 181.057C124.676 180.5 124.939 180.017 125.279 179.606C125.619 179.196 126.023 178.88 126.492 178.657C126.967 178.429 127.491 178.314 128.065 178.314C128.534 178.314 128.956 178.379 129.331 178.508C129.706 178.631 130.025 178.83 130.289 179.105C130.559 179.381 130.764 179.738 130.904 180.178C131.045 180.611 131.115 181.142 131.115 181.769V188H129.48V181.751C129.48 181.253 129.407 180.854 129.261 180.556C129.114 180.251 128.9 180.031 128.619 179.896C128.338 179.756 127.992 179.686 127.582 179.686C127.178 179.686 126.809 179.771 126.475 179.94C126.146 180.11 125.862 180.345 125.622 180.644C125.388 180.942 125.203 181.285 125.068 181.672C124.939 182.053 124.875 182.457 124.875 182.885ZM137.566 178.49V179.738H132.425V178.49H137.566ZM134.165 176.179H135.791V185.645C135.791 185.967 135.841 186.21 135.94 186.374C136.04 186.538 136.169 186.646 136.327 186.699C136.485 186.752 136.655 186.778 136.837 186.778C136.972 186.778 137.112 186.767 137.259 186.743C137.411 186.714 137.525 186.69 137.602 186.673L137.61 188C137.481 188.041 137.312 188.079 137.101 188.114C136.896 188.155 136.646 188.176 136.354 188.176C135.955 188.176 135.589 188.097 135.255 187.938C134.921 187.78 134.654 187.517 134.455 187.147C134.262 186.772 134.165 186.269 134.165 185.636V176.179ZM149.476 185.478C149.476 185.243 149.423 185.026 149.317 184.827C149.218 184.622 149.01 184.438 148.693 184.273C148.383 184.104 147.914 183.957 147.287 183.834C146.76 183.723 146.282 183.591 145.854 183.438C145.433 183.286 145.072 183.102 144.773 182.885C144.48 182.668 144.255 182.413 144.097 182.12C143.938 181.827 143.859 181.484 143.859 181.092C143.859 180.717 143.941 180.362 144.105 180.028C144.275 179.694 144.513 179.398 144.817 179.141C145.128 178.883 145.5 178.681 145.934 178.534C146.367 178.388 146.851 178.314 147.384 178.314C148.146 178.314 148.796 178.449 149.335 178.719C149.874 178.988 150.287 179.349 150.574 179.8C150.861 180.245 151.005 180.74 151.005 181.285H149.379C149.379 181.021 149.3 180.767 149.142 180.521C148.989 180.269 148.764 180.061 148.465 179.896C148.172 179.732 147.812 179.65 147.384 179.65C146.933 179.65 146.566 179.721 146.285 179.861C146.01 179.996 145.808 180.169 145.679 180.38C145.556 180.591 145.494 180.813 145.494 181.048C145.494 181.224 145.523 181.382 145.582 181.522C145.646 181.657 145.758 181.783 145.916 181.9C146.074 182.012 146.297 182.117 146.584 182.217C146.871 182.316 147.237 182.416 147.683 182.516C148.462 182.691 149.104 182.902 149.607 183.148C150.111 183.395 150.486 183.696 150.732 184.054C150.979 184.411 151.102 184.845 151.102 185.354C151.102 185.771 151.014 186.151 150.838 186.497C150.668 186.843 150.419 187.142 150.091 187.394C149.769 187.64 149.382 187.833 148.931 187.974C148.485 188.108 147.984 188.176 147.428 188.176C146.59 188.176 145.881 188.026 145.301 187.728C144.721 187.429 144.281 187.042 143.982 186.567C143.684 186.093 143.534 185.592 143.534 185.064H145.169C145.192 185.51 145.321 185.864 145.556 186.128C145.79 186.386 146.077 186.57 146.417 186.682C146.757 186.787 147.094 186.84 147.428 186.84C147.873 186.84 148.245 186.781 148.544 186.664C148.849 186.547 149.08 186.386 149.238 186.181C149.396 185.976 149.476 185.741 149.476 185.478ZM157.043 186.84C157.43 186.84 157.787 186.761 158.115 186.603C158.443 186.444 158.713 186.228 158.924 185.952C159.135 185.671 159.255 185.352 159.284 184.994H160.831C160.802 185.557 160.611 186.081 160.26 186.567C159.914 187.048 159.46 187.438 158.897 187.736C158.335 188.029 157.717 188.176 157.043 188.176C156.328 188.176 155.704 188.05 155.171 187.798C154.644 187.546 154.204 187.2 153.853 186.761C153.507 186.321 153.246 185.817 153.07 185.249C152.9 184.675 152.815 184.068 152.815 183.43V183.061C152.815 182.422 152.9 181.818 153.07 181.25C153.246 180.676 153.507 180.169 153.853 179.729C154.204 179.29 154.644 178.944 155.171 178.692C155.704 178.44 156.328 178.314 157.043 178.314C157.787 178.314 158.438 178.467 158.994 178.771C159.551 179.07 159.987 179.48 160.304 180.002C160.626 180.518 160.802 181.104 160.831 181.76H159.284C159.255 181.367 159.144 181.013 158.95 180.696C158.763 180.38 158.505 180.128 158.177 179.94C157.854 179.747 157.477 179.65 157.043 179.65C156.545 179.65 156.126 179.75 155.786 179.949C155.452 180.143 155.186 180.406 154.986 180.74C154.793 181.068 154.652 181.435 154.564 181.839C154.482 182.237 154.441 182.645 154.441 183.061V183.43C154.441 183.846 154.482 184.256 154.564 184.66C154.646 185.064 154.784 185.431 154.978 185.759C155.177 186.087 155.443 186.351 155.777 186.55C156.117 186.743 156.539 186.84 157.043 186.84ZM164.285 174.5V188H162.659V174.5H164.285ZM163.898 182.885L163.222 182.858C163.228 182.208 163.324 181.607 163.512 181.057C163.699 180.5 163.963 180.017 164.303 179.606C164.643 179.196 165.047 178.88 165.516 178.657C165.99 178.429 166.515 178.314 167.089 178.314C167.558 178.314 167.979 178.379 168.354 178.508C168.729 178.631 169.049 178.83 169.312 179.105C169.582 179.381 169.787 179.738 169.928 180.178C170.068 180.611 170.139 181.142 170.139 181.769V188H168.504V181.751C168.504 181.253 168.431 180.854 168.284 180.556C168.138 180.251 167.924 180.031 167.643 179.896C167.361 179.756 167.016 179.686 166.605 179.686C166.201 179.686 165.832 179.771 165.498 179.94C165.17 180.11 164.886 180.345 164.646 180.644C164.411 180.942 164.227 181.285 164.092 181.672C163.963 182.053 163.898 182.457 163.898 182.885ZM176.52 188.176C175.857 188.176 175.257 188.064 174.718 187.842C174.185 187.613 173.725 187.294 173.338 186.884C172.957 186.474 172.664 185.987 172.459 185.425C172.254 184.862 172.151 184.247 172.151 183.579V183.21C172.151 182.437 172.266 181.748 172.494 181.145C172.723 180.535 173.033 180.02 173.426 179.598C173.818 179.176 174.264 178.856 174.762 178.64C175.26 178.423 175.775 178.314 176.309 178.314C176.988 178.314 177.574 178.432 178.066 178.666C178.564 178.9 178.972 179.229 179.288 179.65C179.604 180.066 179.839 180.559 179.991 181.127C180.144 181.689 180.22 182.305 180.22 182.973V183.702H173.118V182.375H178.594V182.252C178.57 181.83 178.482 181.42 178.33 181.021C178.184 180.623 177.949 180.295 177.627 180.037C177.305 179.779 176.865 179.65 176.309 179.65C175.939 179.65 175.6 179.729 175.289 179.888C174.979 180.04 174.712 180.269 174.489 180.573C174.267 180.878 174.094 181.25 173.971 181.689C173.848 182.129 173.786 182.636 173.786 183.21V183.579C173.786 184.03 173.848 184.455 173.971 184.854C174.1 185.246 174.284 185.592 174.524 185.891C174.771 186.189 175.066 186.424 175.412 186.594C175.764 186.764 176.162 186.849 176.607 186.849C177.182 186.849 177.668 186.731 178.066 186.497C178.465 186.263 178.813 185.949 179.112 185.557L180.097 186.339C179.892 186.649 179.631 186.945 179.314 187.227C178.998 187.508 178.608 187.736 178.146 187.912C177.688 188.088 177.146 188.176 176.52 188.176ZM188.112 186.154V174.5H189.747V188H188.253L188.112 186.154ZM181.714 183.351V183.166C181.714 182.439 181.802 181.78 181.978 181.188C182.159 180.591 182.414 180.078 182.742 179.65C183.076 179.223 183.472 178.895 183.929 178.666C184.392 178.432 184.907 178.314 185.476 178.314C186.073 178.314 186.595 178.42 187.04 178.631C187.491 178.836 187.872 179.138 188.183 179.536C188.499 179.929 188.748 180.403 188.93 180.96C189.111 181.517 189.237 182.146 189.308 182.85V183.658C189.243 184.355 189.117 184.982 188.93 185.539C188.748 186.096 188.499 186.57 188.183 186.963C187.872 187.355 187.491 187.657 187.04 187.868C186.589 188.073 186.062 188.176 185.458 188.176C184.901 188.176 184.392 188.056 183.929 187.815C183.472 187.575 183.076 187.238 182.742 186.805C182.414 186.371 182.159 185.861 181.978 185.275C181.802 184.684 181.714 184.042 181.714 183.351ZM183.349 183.166V183.351C183.349 183.825 183.396 184.271 183.489 184.687C183.589 185.103 183.741 185.469 183.946 185.785C184.151 186.102 184.412 186.351 184.729 186.532C185.045 186.708 185.423 186.796 185.862 186.796C186.401 186.796 186.844 186.682 187.189 186.453C187.541 186.225 187.822 185.923 188.033 185.548C188.244 185.173 188.408 184.766 188.525 184.326V182.208C188.455 181.886 188.353 181.575 188.218 181.276C188.089 180.972 187.919 180.702 187.708 180.468C187.503 180.228 187.248 180.037 186.943 179.896C186.645 179.756 186.29 179.686 185.88 179.686C185.435 179.686 185.051 179.779 184.729 179.967C184.412 180.148 184.151 180.4 183.946 180.723C183.741 181.039 183.589 181.408 183.489 181.83C183.396 182.246 183.349 182.691 183.349 183.166ZM198.097 185.803V178.49H199.731V188H198.176L198.097 185.803ZM198.404 183.799L199.081 183.781C199.081 184.414 199.014 185 198.879 185.539C198.75 186.072 198.539 186.535 198.246 186.928C197.953 187.32 197.569 187.628 197.095 187.851C196.62 188.067 196.043 188.176 195.363 188.176C194.9 188.176 194.476 188.108 194.089 187.974C193.708 187.839 193.38 187.631 193.104 187.35C192.829 187.068 192.615 186.702 192.463 186.251C192.316 185.8 192.243 185.258 192.243 184.625V178.49H193.869V184.643C193.869 185.07 193.916 185.425 194.01 185.706C194.109 185.981 194.241 186.201 194.405 186.365C194.575 186.523 194.763 186.635 194.968 186.699C195.179 186.764 195.396 186.796 195.618 186.796C196.31 186.796 196.857 186.664 197.262 186.4C197.666 186.131 197.956 185.771 198.132 185.319C198.313 184.862 198.404 184.355 198.404 183.799ZM203.977 174.5V188H202.342V174.5H203.977ZM210.533 188.176C209.871 188.176 209.271 188.064 208.731 187.842C208.198 187.613 207.738 187.294 207.352 186.884C206.971 186.474 206.678 185.987 206.473 185.425C206.268 184.862 206.165 184.247 206.165 183.579V183.21C206.165 182.437 206.279 181.748 206.508 181.145C206.736 180.535 207.047 180.02 207.439 179.598C207.832 179.176 208.277 178.856 208.775 178.64C209.273 178.423 209.789 178.314 210.322 178.314C211.002 178.314 211.588 178.432 212.08 178.666C212.578 178.9 212.985 179.229 213.302 179.65C213.618 180.066 213.853 180.559 214.005 181.127C214.157 181.689 214.233 182.305 214.233 182.973V183.702H207.132V182.375H212.607V182.252C212.584 181.83 212.496 181.42 212.344 181.021C212.197 180.623 211.963 180.295 211.641 180.037C211.318 179.779 210.879 179.65 210.322 179.65C209.953 179.65 209.613 179.729 209.303 179.888C208.992 180.04 208.726 180.269 208.503 180.573C208.28 180.878 208.107 181.25 207.984 181.689C207.861 182.129 207.8 182.636 207.8 183.21V183.579C207.8 184.03 207.861 184.455 207.984 184.854C208.113 185.246 208.298 185.592 208.538 185.891C208.784 186.189 209.08 186.424 209.426 186.594C209.777 186.764 210.176 186.849 210.621 186.849C211.195 186.849 211.682 186.731 212.08 186.497C212.479 186.263 212.827 185.949 213.126 185.557L214.11 186.339C213.905 186.649 213.645 186.945 213.328 187.227C213.012 187.508 212.622 187.736 212.159 187.912C211.702 188.088 211.16 188.176 210.533 188.176ZM222.126 186.154V174.5H223.761V188H222.267L222.126 186.154ZM215.728 183.351V183.166C215.728 182.439 215.815 181.78 215.991 181.188C216.173 180.591 216.428 180.078 216.756 179.65C217.09 179.223 217.485 178.895 217.942 178.666C218.405 178.432 218.921 178.314 219.489 178.314C220.087 178.314 220.608 178.42 221.054 178.631C221.505 178.836 221.886 179.138 222.196 179.536C222.513 179.929 222.762 180.403 222.943 180.96C223.125 181.517 223.251 182.146 223.321 182.85V183.658C223.257 184.355 223.131 184.982 222.943 185.539C222.762 186.096 222.513 186.57 222.196 186.963C221.886 187.355 221.505 187.657 221.054 187.868C220.603 188.073 220.075 188.176 219.472 188.176C218.915 188.176 218.405 188.056 217.942 187.815C217.485 187.575 217.09 187.238 216.756 186.805C216.428 186.371 216.173 185.861 215.991 185.275C215.815 184.684 215.728 184.042 215.728 183.351ZM217.362 183.166V183.351C217.362 183.825 217.409 184.271 217.503 184.687C217.603 185.103 217.755 185.469 217.96 185.785C218.165 186.102 218.426 186.351 218.742 186.532C219.059 186.708 219.437 186.796 219.876 186.796C220.415 186.796 220.857 186.682 221.203 186.453C221.555 186.225 221.836 185.923 222.047 185.548C222.258 185.173 222.422 184.766 222.539 184.326V182.208C222.469 181.886 222.366 181.575 222.231 181.276C222.103 180.972 221.933 180.702 221.722 180.468C221.517 180.228 221.262 180.037 220.957 179.896C220.658 179.756 220.304 179.686 219.894 179.686C219.448 179.686 219.064 179.779 218.742 179.967C218.426 180.148 218.165 180.4 217.96 180.723C217.755 181.039 217.603 181.408 217.503 181.83C217.409 182.246 217.362 182.691 217.362 183.166ZM233.183 188H231.557V177.488C231.557 176.803 231.68 176.226 231.926 175.757C232.178 175.282 232.538 174.925 233.007 174.685C233.476 174.438 234.032 174.315 234.677 174.315C234.864 174.315 235.052 174.327 235.239 174.351C235.433 174.374 235.62 174.409 235.802 174.456L235.714 175.783C235.591 175.754 235.45 175.733 235.292 175.722C235.14 175.71 234.987 175.704 234.835 175.704C234.489 175.704 234.19 175.774 233.938 175.915C233.692 176.05 233.505 176.249 233.376 176.513C233.247 176.776 233.183 177.102 233.183 177.488V188ZM235.204 178.49V179.738H230.054V178.49H235.204ZM236.584 183.351V183.148C236.584 182.463 236.684 181.827 236.883 181.241C237.082 180.649 237.369 180.137 237.744 179.703C238.119 179.264 238.573 178.924 239.106 178.684C239.64 178.438 240.237 178.314 240.899 178.314C241.567 178.314 242.168 178.438 242.701 178.684C243.24 178.924 243.697 179.264 244.072 179.703C244.453 180.137 244.743 180.649 244.942 181.241C245.142 181.827 245.241 182.463 245.241 183.148V183.351C245.241 184.036 245.142 184.672 244.942 185.258C244.743 185.844 244.453 186.356 244.072 186.796C243.697 187.229 243.243 187.569 242.71 187.815C242.183 188.056 241.585 188.176 240.917 188.176C240.249 188.176 239.648 188.056 239.115 187.815C238.582 187.569 238.125 187.229 237.744 186.796C237.369 186.356 237.082 185.844 236.883 185.258C236.684 184.672 236.584 184.036 236.584 183.351ZM238.21 183.148V183.351C238.21 183.825 238.266 184.273 238.377 184.695C238.488 185.111 238.655 185.48 238.878 185.803C239.106 186.125 239.391 186.38 239.73 186.567C240.07 186.749 240.466 186.84 240.917 186.84C241.362 186.84 241.752 186.749 242.086 186.567C242.426 186.38 242.707 186.125 242.93 185.803C243.152 185.48 243.319 185.111 243.431 184.695C243.548 184.273 243.606 183.825 243.606 183.351V183.148C243.606 182.68 243.548 182.237 243.431 181.821C243.319 181.399 243.149 181.027 242.921 180.705C242.698 180.377 242.417 180.119 242.077 179.932C241.743 179.744 241.351 179.65 240.899 179.65C240.454 179.65 240.062 179.744 239.722 179.932C239.388 180.119 239.106 180.377 238.878 180.705C238.655 181.027 238.488 181.399 238.377 181.821C238.266 182.237 238.21 182.68 238.21 183.148ZM248.906 179.984V188H247.28V178.49H248.862L248.906 179.984ZM251.877 178.438L251.868 179.949C251.733 179.92 251.604 179.902 251.481 179.896C251.364 179.885 251.229 179.879 251.077 179.879C250.702 179.879 250.371 179.938 250.084 180.055C249.797 180.172 249.554 180.336 249.354 180.547C249.155 180.758 248.997 181.01 248.88 181.303C248.769 181.59 248.695 181.906 248.66 182.252L248.203 182.516C248.203 181.941 248.259 181.402 248.37 180.898C248.487 180.395 248.666 179.949 248.906 179.562C249.146 179.17 249.451 178.865 249.82 178.648C250.195 178.426 250.641 178.314 251.156 178.314C251.273 178.314 251.408 178.329 251.561 178.358C251.713 178.382 251.818 178.408 251.877 178.438ZM261.826 178.49V179.738H256.685V178.49H261.826ZM258.425 176.179H260.051V185.645C260.051 185.967 260.101 186.21 260.2 186.374C260.3 186.538 260.429 186.646 260.587 186.699C260.745 186.752 260.915 186.778 261.097 186.778C261.231 186.778 261.372 186.767 261.519 186.743C261.671 186.714 261.785 186.69 261.861 186.673L261.87 188C261.741 188.041 261.571 188.079 261.36 188.114C261.155 188.155 260.906 188.176 260.613 188.176C260.215 188.176 259.849 188.097 259.515 187.938C259.181 187.78 258.914 187.517 258.715 187.147C258.521 186.772 258.425 186.269 258.425 185.636V176.179ZM263.127 183.351V183.148C263.127 182.463 263.227 181.827 263.426 181.241C263.625 180.649 263.912 180.137 264.287 179.703C264.662 179.264 265.116 178.924 265.649 178.684C266.183 178.438 266.78 178.314 267.442 178.314C268.11 178.314 268.711 178.438 269.244 178.684C269.783 178.924 270.24 179.264 270.615 179.703C270.996 180.137 271.286 180.649 271.485 181.241C271.685 181.827 271.784 182.463 271.784 183.148V183.351C271.784 184.036 271.685 184.672 271.485 185.258C271.286 185.844 270.996 186.356 270.615 186.796C270.24 187.229 269.786 187.569 269.253 187.815C268.726 188.056 268.128 188.176 267.46 188.176C266.792 188.176 266.191 188.056 265.658 187.815C265.125 187.569 264.668 187.229 264.287 186.796C263.912 186.356 263.625 185.844 263.426 185.258C263.227 184.672 263.127 184.036 263.127 183.351ZM264.753 183.148V183.351C264.753 183.825 264.809 184.273 264.92 184.695C265.031 185.111 265.198 185.48 265.421 185.803C265.649 186.125 265.934 186.38 266.273 186.567C266.613 186.749 267.009 186.84 267.46 186.84C267.905 186.84 268.295 186.749 268.629 186.567C268.969 186.38 269.25 186.125 269.473 185.803C269.695 185.48 269.862 185.111 269.974 184.695C270.091 184.273 270.149 183.825 270.149 183.351V183.148C270.149 182.68 270.091 182.237 269.974 181.821C269.862 181.399 269.692 181.027 269.464 180.705C269.241 180.377 268.96 180.119 268.62 179.932C268.286 179.744 267.894 179.65 267.442 179.65C266.997 179.65 266.604 179.744 266.265 179.932C265.931 180.119 265.649 180.377 265.421 180.705C265.198 181.027 265.031 181.399 264.92 181.821C264.809 182.237 264.753 182.68 264.753 183.148ZM279.817 186.154V174.5H281.452V188H279.958L279.817 186.154ZM273.419 183.351V183.166C273.419 182.439 273.507 181.78 273.683 181.188C273.864 180.591 274.119 180.078 274.447 179.65C274.781 179.223 275.177 178.895 275.634 178.666C276.097 178.432 276.612 178.314 277.181 178.314C277.778 178.314 278.3 178.42 278.745 178.631C279.196 178.836 279.577 179.138 279.888 179.536C280.204 179.929 280.453 180.403 280.635 180.96C280.816 181.517 280.942 182.146 281.013 182.85V183.658C280.948 184.355 280.822 184.982 280.635 185.539C280.453 186.096 280.204 186.57 279.888 186.963C279.577 187.355 279.196 187.657 278.745 187.868C278.294 188.073 277.767 188.176 277.163 188.176C276.606 188.176 276.097 188.056 275.634 187.815C275.177 187.575 274.781 187.238 274.447 186.805C274.119 186.371 273.864 185.861 273.683 185.275C273.507 184.684 273.419 184.042 273.419 183.351ZM275.054 183.166V183.351C275.054 183.825 275.101 184.271 275.194 184.687C275.294 185.103 275.446 185.469 275.651 185.785C275.856 186.102 276.117 186.351 276.434 186.532C276.75 186.708 277.128 186.796 277.567 186.796C278.106 186.796 278.549 186.682 278.895 186.453C279.246 186.225 279.527 185.923 279.738 185.548C279.949 185.173 280.113 184.766 280.23 184.326V182.208C280.16 181.886 280.058 181.575 279.923 181.276C279.794 180.972 279.624 180.702 279.413 180.468C279.208 180.228 278.953 180.037 278.648 179.896C278.35 179.756 277.995 179.686 277.585 179.686C277.14 179.686 276.756 179.779 276.434 179.967C276.117 180.148 275.856 180.4 275.651 180.723C275.446 181.039 275.294 181.408 275.194 181.83C275.101 182.246 275.054 182.691 275.054 183.166ZM289.591 186.374V181.479C289.591 181.104 289.515 180.778 289.362 180.503C289.216 180.222 288.993 180.005 288.694 179.853C288.396 179.7 288.026 179.624 287.587 179.624C287.177 179.624 286.816 179.694 286.506 179.835C286.201 179.976 285.961 180.16 285.785 180.389C285.615 180.617 285.53 180.863 285.53 181.127H283.904C283.904 180.787 283.992 180.45 284.168 180.116C284.344 179.782 284.596 179.48 284.924 179.211C285.258 178.936 285.656 178.719 286.119 178.561C286.588 178.396 287.109 178.314 287.684 178.314C288.375 178.314 288.984 178.432 289.512 178.666C290.045 178.9 290.461 179.255 290.76 179.729C291.064 180.198 291.217 180.787 291.217 181.496V185.926C291.217 186.242 291.243 186.579 291.296 186.937C291.354 187.294 291.439 187.602 291.551 187.859V188H289.854C289.772 187.812 289.708 187.563 289.661 187.253C289.614 186.937 289.591 186.644 289.591 186.374ZM289.872 182.234L289.89 183.377H288.246C287.783 183.377 287.37 183.415 287.007 183.491C286.644 183.562 286.339 183.67 286.093 183.816C285.847 183.963 285.659 184.147 285.53 184.37C285.401 184.587 285.337 184.842 285.337 185.135C285.337 185.434 285.404 185.706 285.539 185.952C285.674 186.198 285.876 186.395 286.146 186.541C286.421 186.682 286.758 186.752 287.156 186.752C287.654 186.752 288.094 186.646 288.475 186.436C288.855 186.225 289.157 185.967 289.38 185.662C289.608 185.357 289.731 185.062 289.749 184.774L290.443 185.557C290.402 185.803 290.291 186.075 290.109 186.374C289.928 186.673 289.685 186.96 289.38 187.235C289.081 187.505 288.724 187.73 288.308 187.912C287.897 188.088 287.435 188.176 286.919 188.176C286.274 188.176 285.709 188.05 285.223 187.798C284.742 187.546 284.367 187.209 284.098 186.787C283.834 186.359 283.702 185.882 283.702 185.354C283.702 184.845 283.802 184.396 284.001 184.01C284.2 183.617 284.487 183.292 284.862 183.034C285.237 182.771 285.688 182.571 286.216 182.437C286.743 182.302 287.332 182.234 287.982 182.234H289.872ZM296.306 187.016L298.951 178.49H300.691L296.877 189.468C296.789 189.702 296.672 189.954 296.525 190.224C296.385 190.499 296.203 190.76 295.98 191.006C295.758 191.252 295.488 191.451 295.172 191.604C294.861 191.762 294.489 191.841 294.056 191.841C293.927 191.841 293.763 191.823 293.563 191.788C293.364 191.753 293.224 191.724 293.142 191.7L293.133 190.382C293.18 190.388 293.253 190.394 293.353 190.399C293.458 190.411 293.531 190.417 293.572 190.417C293.941 190.417 294.255 190.367 294.513 190.268C294.771 190.174 294.987 190.013 295.163 189.784C295.345 189.562 295.5 189.254 295.629 188.861L296.306 187.016ZM294.363 178.49L296.833 185.873L297.255 187.587L296.086 188.185L292.588 178.49H294.363Z" fill="black"/>
</g>
<defs>
<linearGradient id="paint0_linear_16109_23541" x1="157.498" y1="98.8175" x2="157.498" y2="186.627" gradientUnits="userSpaceOnUse">
<stop stop-color="#E5E5E5"/>
<stop offset="0.48" stop-color="#F4F4F4"/>
<stop offset="1" stop-color="white"/>
</linearGradient>
<linearGradient id="paint1_linear_16109_23541" x1="172.664" y1="152.463" x2="164.494" y2="158.636" gradientUnits="userSpaceOnUse">
<stop stop-color="#00B2E3"/>
<stop offset="0.98" stop-color="#5D8AB5"/>
</linearGradient>
<linearGradient id="paint2_linear_16109_23541" x1="149.446" y1="13.5414" x2="134.032" y2="11.8261" gradientUnits="userSpaceOnUse">
<stop stop-color="#F2BFAD"/>
<stop offset="1" stop-color="#F2DAD4"/>
</linearGradient>
<linearGradient id="paint3_linear_16109_23541" x1="131.008" y1="32.8661" x2="183.657" y2="72.6629" gradientUnits="userSpaceOnUse">
<stop stop-color="#65DAFB"/>
<stop offset="0.98" stop-color="#00B4E5"/>
</linearGradient>
<linearGradient id="paint4_linear_16109_23541" x1="183.877" y1="55.3853" x2="184.666" y2="68.7219" gradientUnits="userSpaceOnUse">
<stop stop-color="#F2BFAD"/>
<stop offset="0.7" stop-color="#F2DAD4"/>
</linearGradient>
<linearGradient id="paint5_linear_16109_23541" x1="151.446" y1="19.0904" x2="156.569" y2="29.7564" gradientUnits="userSpaceOnUse">
<stop stop-color="#F2BFAD"/>
<stop offset="1" stop-color="#F2DAD4"/>
</linearGradient>
<linearGradient id="paint6_linear_16109_23541" x1="175.327" y1="42.7349" x2="184.239" y2="59.0872" gradientUnits="userSpaceOnUse">
<stop stop-color="#F6DBDB"/>
<stop offset="1" stop-color="#EB9A99"/>
</linearGradient>
<linearGradient id="paint7_linear_16109_23541" x1="134.854" y1="153.328" x2="143.02" y2="159.502" gradientUnits="userSpaceOnUse">
<stop stop-color="#00B2E3"/>
<stop offset="0.98" stop-color="#5D8AB5"/>
</linearGradient>
<clipPath id="clip0_16109_23541">
<rect width="315" height="236" fill="white"/>
</clipPath>
</defs>
</svg>
