<svg width="207" height="227" viewBox="0 0 207 227" fill="none" xmlns="http://www.w3.org/2000/svg">
<g clip-path="url(#clip0_17608_24635)">
<path d="M176.934 15.43H166.001V9.30178C166.001 6.8348 165.022 4.46885 163.279 2.72443C161.536 0.980007 159.172 0 156.708 0C154.243 0 151.879 0.980007 150.137 2.72443C148.394 4.46885 147.415 6.8348 147.415 9.30178V15.43H81.6338C79.7007 15.43 77.8468 16.1987 76.4799 17.5668C75.113 18.935 74.3451 20.7906 74.3451 22.7255C74.3451 24.6604 75.113 26.5161 76.4799 27.8842C77.8468 29.2524 79.7007 30.0211 81.6338 30.0211H147.415V36.1493C147.415 38.6163 148.394 40.9822 150.137 42.7266C151.879 44.4711 154.243 45.4511 156.708 45.4511C159.172 45.4511 161.536 44.4711 163.279 42.7266C165.022 40.9822 166.001 38.6163 166.001 36.1493V30.0211H176.934C181.04 30.0259 184.977 31.6608 187.881 34.5671C190.784 37.4734 192.418 41.4139 192.423 45.524V62.8509H14.5775V45.524C14.5823 41.4139 16.2157 37.4734 19.1193 34.5671C22.0229 31.6608 25.9597 30.0259 30.066 30.0211H41.1813V36.1493C41.1813 38.6163 42.1604 40.9822 43.9032 42.7266C45.646 44.4711 48.0098 45.4511 50.4745 45.4511C52.9392 45.4511 55.3029 44.4711 57.0457 42.7266C58.7885 40.9822 59.7676 38.6163 59.7676 36.1493V9.30178C59.7676 6.8348 58.7885 4.46885 57.0457 2.72443C55.3029 0.980007 52.9392 0 50.4745 0C48.0098 0 45.646 0.980007 43.9032 2.72443C42.1604 4.46885 41.1813 6.8348 41.1813 9.30178V15.43H30.066C22.0947 15.4387 14.4523 18.6121 8.81572 24.2539C3.17913 29.8958 0.00868181 37.5453 0 45.524L0 188.516C0.00868181 196.495 3.17913 204.144 8.81572 209.786C14.4523 215.428 22.0947 218.601 30.066 218.61H36.8081C38.7412 218.61 40.5951 217.842 41.962 216.473C43.3289 215.105 44.0968 213.25 44.0968 211.315C44.0968 209.38 43.3289 207.524 41.962 206.156C40.5951 204.788 38.7412 204.019 36.8081 204.019H30.066C25.9597 204.014 22.0229 202.379 19.1193 199.473C16.2157 196.567 14.5823 192.626 14.5775 188.516V77.4419H192.423V188.516C192.418 192.626 190.784 196.567 187.881 199.473C184.977 202.379 181.04 204.014 176.934 204.019H169.463C167.53 204.019 165.676 204.788 164.309 206.156C162.942 207.524 162.174 209.38 162.174 211.315C162.174 213.25 162.942 215.105 164.309 216.473C165.676 217.842 167.53 218.61 169.463 218.61H176.934C184.905 218.601 192.548 215.428 198.184 209.786C203.821 204.144 206.991 196.495 207 188.516V45.524C206.991 37.5453 203.821 29.8958 198.184 24.2539C192.548 18.6121 184.905 15.4387 176.934 15.43V15.43Z" fill="#DDDDDD"/>
<path d="M102.953 103.341C90.736 103.341 78.793 106.967 68.6347 113.761C58.4763 120.555 50.5589 130.211 45.8835 141.509C41.2081 152.807 39.9848 165.239 42.3683 177.233C44.7518 189.226 50.635 200.243 59.274 208.89C67.9129 217.537 78.9197 223.426 90.9023 225.812C102.885 228.197 115.305 226.973 126.592 222.293C137.88 217.614 147.527 209.689 154.315 199.521C161.103 189.353 164.725 177.399 164.725 165.17C164.725 148.772 158.217 133.046 146.633 121.45C135.048 109.855 119.336 103.341 102.953 103.341V103.341ZM102.953 210.585C93.9796 210.585 85.2073 207.921 77.7458 202.931C70.2844 197.941 64.4689 190.848 61.0348 182.55C57.6007 174.251 56.7021 165.12 58.4528 156.31C60.2035 147.501 64.5248 139.409 70.8703 133.057C77.2157 126.706 85.3003 122.381 94.1017 120.628C102.903 118.876 112.026 119.775 120.317 123.213C128.607 126.65 135.694 132.471 140.679 139.939C145.665 147.408 148.326 156.188 148.326 165.17C148.312 177.211 143.528 188.754 135.022 197.268C126.516 205.782 114.983 210.571 102.953 210.585Z" fill="#00B2E3"/>
<path d="M122.815 155.504H112.793V145.472C112.793 143.054 111.833 140.734 110.125 139.024C108.416 137.314 106.099 136.353 103.682 136.353C101.266 136.353 98.9484 137.314 97.2398 139.024C95.5312 140.734 94.5713 143.054 94.5713 145.472V155.504H84.5493C82.135 155.51 79.8215 156.473 78.1143 158.182C76.4071 159.891 75.4451 162.207 75.4384 164.623V164.623C75.4451 167.04 76.4071 169.355 78.1143 171.064C79.8215 172.773 82.135 173.736 84.5493 173.743H94.5713V183.774C94.5713 186.193 95.5312 188.512 97.2398 190.222C98.9484 191.932 101.266 192.893 103.682 192.893C106.099 192.893 108.416 191.932 110.125 190.222C111.833 188.512 112.793 186.193 112.793 183.774V173.743H122.815C125.229 173.736 127.543 172.773 129.25 171.064C130.957 169.355 131.919 167.04 131.926 164.623V164.623C131.919 162.207 130.957 159.891 129.25 158.182C127.543 156.473 125.229 155.51 122.815 155.504V155.504Z" fill="#00B2E3"/>
</g>
<defs>
<clipPath id="clip0_17608_24635">
<rect width="207" height="227" fill="white"/>
</clipPath>
</defs>
</svg>
