<svg width="54" height="54" viewBox="0 0 54 54" fill="none" xmlns="http://www.w3.org/2000/svg">
<path d="M40.5 2.7C40.5 1.2069 39.2904 0 37.8 0C36.3096 0 35.1 1.2069 35.1 2.7H18.9C18.9 1.2069 17.6904 0 16.2 0C14.7096 0 13.5 1.2069 13.5 2.7C6.0561 2.7 0 8.7561 0 16.2V40.5C0 47.9439 6.0561 54 13.5 54H40.5C47.9439 54 54 47.9439 54 40.5V16.2C54 8.7561 47.9439 2.7 40.5 2.7ZM13.5 8.1V10.8C13.5 12.2931 14.7096 13.5 16.2 13.5C17.6904 13.5 18.9 12.2931 18.9 10.8V8.1H35.1V10.8C35.1 12.2931 36.3096 13.5 37.8 13.5C39.2904 13.5 40.5 12.2931 40.5 10.8V8.1C44.9658 8.1 48.6 11.7342 48.6 16.2H5.4C5.4 11.7342 9.0342 8.1 13.5 8.1ZM40.5 48.6H13.5C9.0342 48.6 5.4 44.9658 5.4 40.5V21.6H48.6V40.5C48.6 44.9658 44.9658 48.6 40.5 48.6Z" fill="#FD5F5F"/>
</svg>
