<svg width="18" height="18" viewBox="0 0 18 18" fill="none" xmlns="http://www.w3.org/2000/svg">
<path d="M16.2641 3.90234H14.3508V1.40625C14.3508 1.01791 14.036 0.703125 13.6477 0.703125H4.35238C3.96404 0.703125 3.64925 1.01791 3.64925 1.40625V3.90234H1.73591C0.778746 3.90234 0 4.6909 0 5.66016V12.3398C0 13.3091 0.778746 14.0977 1.73591 14.0977H3.64922V16.5938C3.64922 16.9821 3.96401 17.2969 4.35234 17.2969H13.6476C14.0359 17.2969 14.3507 16.9821 14.3507 16.5938V14.0977H16.264C17.2213 14.0977 18 13.3091 18 12.3398V5.66016C18 4.6909 17.2213 3.90234 16.2641 3.90234ZM5.0555 2.10938H12.9445V3.90234H5.0555V2.10938ZM5.0555 15.8906C5.0555 15.8341 5.0555 10.7513 5.0555 10.582H12.9445C12.9445 10.7513 12.9445 15.8341 12.9445 15.8906H5.0555ZM16.2641 12.6914H14.3508V10.582H14.9766C15.3649 10.582 15.6797 10.2672 15.6797 9.87891C15.6797 9.49057 15.3649 9.17578 14.9766 9.17578C14.5532 9.17578 3.49657 9.17578 3.02344 9.17578C2.6351 9.17578 2.32031 9.49057 2.32031 9.87891C2.32031 10.2672 2.6351 10.582 3.02344 10.582H3.64925V12.6914H1.73591C1.55415 12.6914 1.40625 12.5337 1.40625 12.3398V5.66016C1.40625 5.4663 1.55415 5.30859 1.73591 5.30859C1.97065 5.30859 15.9932 5.30859 16.2641 5.30859C16.4458 5.30859 16.5937 5.4663 16.5937 5.66016V12.3398H16.5938C16.5938 12.5337 16.4458 12.6914 16.2641 12.6914Z" fill="#52575C"/>
</svg>
